# xmcd CD database file
#
# Track frame offsets:
#	150
#	10970
#	28702
#	42185
#	56312
#	72052
#	85660
#	102804
#	118745
#	130460
#	142435
#	156707
#	170417
#	181290
#	194787
#
# Disc length: 2727 seconds
#
# Revision: 1
# Processed by: cddbd v1.5.2PL0 Copyright (c) Steve Scherf et al.
# Submitted via: CDex 1.70beta2
#
DISCID=da0aa50f
DTITLE=Joe Moore - Her Heart Or Mine
DYEAR=1998
DGENRE=Country
TTITLE0=Honky Tonk Two Steppin' Beer Drinkin' Saturday Night
TTITLE1=All You Ever Do Is Bring Me Down
TTITLE2=Old Loves Never Die
TTITLE3=Call The Preacher
TTITLE4=Seven Spanish Angels
TTITLE5=Fiddle And Bow
TTITLE6=In My Next Life
TTITLE7=(We Owe It All) To Those Who Have Come Before
TTITLE8=Irma Jackson
TTITLE9=Buick's to The Moon
TTITLE10=God Keeps the Wild Flowers Blooming
TTITLE11=I Wonder Where You Are Tonight
TTITLE12=Her Heart or Mine
TTITLE13=Don't Let Me Cross Over
TTITLE14=Welcome To My World
EXTD=YEAR: 1998
EXTT0=
EXTT1=
EXTT2=
EXTT3=
EXTT4=
EXTT5=
EXTT6=
EXTT7=
EXTT8=
EXTT9=
EXTT10=
EXTT11=
EXTT12=
EXTT13=
EXTT14=
PLAYORDER=
